<mxfile host="app.diagrams.net" modified="2024-03-24T06:17:57.435Z" agent="Mozilla/5.0 (Windows NT 10.0; Win64; x64) AppleWebKit/537.36 (KHTML, like Gecko) Chrome/122.0.0.0 Safari/537.36 Edg/122.0.0.0" etag="j4Drvypoy_rBeBmRrhLX" version="24.1.0" type="google">
  <diagram name="Page-1" id="YuYiAJgIBYgrKkqNH70T">
    <mxGraphModel grid="1" page="1" gridSize="10" guides="1" tooltips="1" connect="1" arrows="1" fold="1" pageScale="1" pageWidth="827" pageHeight="1169" math="0" shadow="0">
      <root>
        <mxCell id="0" />
        <mxCell id="1" parent="0" />
        <mxCell id="nhJnPUzq2VYJwqUKgokv-4" value="" style="edgeStyle=orthogonalEdgeStyle;rounded=0;orthogonalLoop=1;jettySize=auto;html=1;" edge="1" parent="1" source="nhJnPUzq2VYJwqUKgokv-1" target="nhJnPUzq2VYJwqUKgokv-3">
          <mxGeometry relative="1" as="geometry" />
        </mxCell>
        <mxCell id="nhJnPUzq2VYJwqUKgokv-1" value="Start" style="ellipse;whiteSpace=wrap;html=1;" vertex="1" parent="1">
          <mxGeometry x="350" width="120" height="80" as="geometry" />
        </mxCell>
        <mxCell id="nhJnPUzq2VYJwqUKgokv-2" value="Prototype : int kiemtranhuan(int year)" style="text;html=1;align=center;verticalAlign=middle;whiteSpace=wrap;rounded=0;" vertex="1" parent="1">
          <mxGeometry width="330" height="50" as="geometry" />
        </mxCell>
        <mxCell id="nhJnPUzq2VYJwqUKgokv-6" value="" style="edgeStyle=orthogonalEdgeStyle;rounded=0;orthogonalLoop=1;jettySize=auto;html=1;" edge="1" parent="1" source="nhJnPUzq2VYJwqUKgokv-3" target="nhJnPUzq2VYJwqUKgokv-5">
          <mxGeometry relative="1" as="geometry" />
        </mxCell>
        <mxCell id="nhJnPUzq2VYJwqUKgokv-3" value="Input year" style="shape=parallelogram;perimeter=parallelogramPerimeter;whiteSpace=wrap;html=1;fixedSize=1;" vertex="1" parent="1">
          <mxGeometry x="350" y="120" width="120" height="60" as="geometry" />
        </mxCell>
        <mxCell id="nhJnPUzq2VYJwqUKgokv-8" value="" style="edgeStyle=orthogonalEdgeStyle;rounded=0;orthogonalLoop=1;jettySize=auto;html=1;" edge="1" parent="1" source="nhJnPUzq2VYJwqUKgokv-5" target="nhJnPUzq2VYJwqUKgokv-7">
          <mxGeometry relative="1" as="geometry" />
        </mxCell>
        <mxCell id="nhJnPUzq2VYJwqUKgokv-10" value="" style="edgeStyle=orthogonalEdgeStyle;rounded=0;orthogonalLoop=1;jettySize=auto;html=1;" edge="1" parent="1" source="nhJnPUzq2VYJwqUKgokv-5" target="nhJnPUzq2VYJwqUKgokv-9">
          <mxGeometry relative="1" as="geometry">
            <Array as="points">
              <mxPoint x="605" y="310" />
            </Array>
          </mxGeometry>
        </mxCell>
        <mxCell id="nhJnPUzq2VYJwqUKgokv-5" value="(year % 4 == 0 &amp;amp;&amp;amp; year % 100 != 0) ||&amp;nbsp;&lt;div&gt;year % 400 == 0&lt;/div&gt;" style="rhombus;whiteSpace=wrap;html=1;" vertex="1" parent="1">
          <mxGeometry x="280" y="250" width="260" height="120" as="geometry" />
        </mxCell>
        <mxCell id="nhJnPUzq2VYJwqUKgokv-12" value="" style="edgeStyle=orthogonalEdgeStyle;rounded=0;orthogonalLoop=1;jettySize=auto;html=1;" edge="1" parent="1" source="nhJnPUzq2VYJwqUKgokv-7" target="nhJnPUzq2VYJwqUKgokv-11">
          <mxGeometry relative="1" as="geometry" />
        </mxCell>
        <mxCell id="nhJnPUzq2VYJwqUKgokv-7" value="Display Nhuận" style="shape=parallelogram;perimeter=parallelogramPerimeter;whiteSpace=wrap;html=1;fixedSize=1;" vertex="1" parent="1">
          <mxGeometry x="130" y="490" width="120" height="60" as="geometry" />
        </mxCell>
        <mxCell id="nhJnPUzq2VYJwqUKgokv-14" value="" style="edgeStyle=orthogonalEdgeStyle;rounded=0;orthogonalLoop=1;jettySize=auto;html=1;" edge="1" parent="1" source="nhJnPUzq2VYJwqUKgokv-9" target="nhJnPUzq2VYJwqUKgokv-11">
          <mxGeometry relative="1" as="geometry" />
        </mxCell>
        <mxCell id="nhJnPUzq2VYJwqUKgokv-9" value="Display Không nhuận" style="shape=parallelogram;perimeter=parallelogramPerimeter;whiteSpace=wrap;html=1;fixedSize=1;" vertex="1" parent="1">
          <mxGeometry x="510" y="490" width="190" height="60" as="geometry" />
        </mxCell>
        <mxCell id="nhJnPUzq2VYJwqUKgokv-11" value="End" style="ellipse;whiteSpace=wrap;html=1;" vertex="1" parent="1">
          <mxGeometry x="330" y="480" width="120" height="80" as="geometry" />
        </mxCell>
      </root>
    </mxGraphModel>
  </diagram>
</mxfile>
